<?xml version="1.0" standalone="no"?>
<!DOCTYPE svg PUBLIC "-//W3C//DTD SVG 20010904//EN"
 "http://www.w3.org/TR/2001/REC-SVG-20010904/DTD/svg10.dtd">
<svg version="1.0" xmlns="http://www.w3.org/2000/svg"
 width="79px" height="79px" viewBox="0 0 1162.000000 1280.000000"
 preserveAspectRatio="xMidYMid meet">
<g transform="translate(0.000000,1280.000000) scale(0.100000,-0.100000)"
fill="#e69138" stroke="none">
<path d="M5455 11783 c-1025 -47 -1957 -305 -2722 -754 -906 -532 -1406 -1155
-1627 -2024 -79 -311 -100 -531 -93 -955 5 -263 9 -327 31 -464 73 -449 188
-826 361 -1183 200 -412 411 -710 730 -1028 364 -364 713 -582 1175 -733 340
-112 578 -151 1085 -178 245 -13 325 -13 435 -4 131 12 207 9 283 -11 32 -9
37 -13 37 -40 0 -96 -142 -334 -343 -578 -298 -361 -506 -553 -862 -795 -71
-49 -171 -121 -220 -161 -57 -45 -110 -78 -143 -89 -210 -70 -349 -299 -312
-517 42 -246 259 -414 511 -395 l86 7 5 -81 c4 -68 11 -92 46 -164 88 -176
263 -277 457 -263 67 5 74 3 180 -45 487 -220 885 -329 1156 -314 63 3 149 12
191 20 270 52 589 232 1063 602 746 582 1457 1331 2057 2169 753 1050 1245
2064 1453 2996 273 1221 131 2323 -406 3140 -456 695 -1182 1193 -2241 1538
-529 172 -1054 267 -1668 301 -157 9 -549 11 -705 3z m690 -733 c819 -51 1502
-227 2155 -554 446 -224 730 -443 985 -761 378 -470 555 -1036 555 -1774 0
-1111 -423 -2252 -1315 -3551 -639 -929 -1365 -1700 -2170 -2305 -263 -197
-424 -295 -560 -341 -70 -23 -90 -26 -157 -20 -160 13 -415 95 -727 232 l-134
59 -53 72 c-61 82 -109 121 -204 167 -61 29 -71 31 -182 31 -65 0 -118 3 -118
6 0 4 73 58 163 120 309 216 431 315 642 525 184 182 324 356 488 604 337 511
467 938 376 1237 -65 212 -211 349 -440 413 -91 25 -305 27 -539 6 -425 -40
-787 -23 -1120 50 -260 58 -545 178 -755 319 -393 265 -769 734 -980 1225
-135 312 -235 684 -264 984 -17 166 -14 641 4 759 114 755 456 1277 1130 1724
609 403 1314 648 2140 742 336 39 760 51 1080 31z"/>
<path d="M5555 9730 c-410 -53 -767 -356 -919 -780 -65 -181 -70 -217 -70
-555 0 -331 7 -414 51 -600 25 -108 75 -252 109 -317 14 -26 17 -53 15 -128
-5 -207 95 -371 279 -454 69 -31 171 -50 227 -41 l43 6 0 -65 c0 -195 100
-365 260 -442 117 -57 208 -66 334 -34 65 16 89 18 144 10 89 -13 231 -12 349
1 476 53 841 434 913 954 56 402 -114 1110 -392 1635 -239 452 -561 718 -960
795 -102 20 -289 27 -383 15z m271 -746 c80 -27 180 -100 244 -178 154 -186
306 -528 395 -890 137 -555 56 -846 -238 -864 l-77 -5 -58 56 c-96 91 -210
137 -341 137 l-76 0 -1 88 c-3 145 -58 262 -169 358 -64 55 -83 87 -119 200
-46 148 -50 184 -50 479 l-1 280 27 68 c48 118 140 231 221 267 54 25 174 27
243 4z"/>
</g>
</svg>
